<?xml version="1.0" encoding="UTF-8"?>
<svg id="Layer_1" xmlns="http://www.w3.org/2000/svg" version="1.1" viewBox="0 0 560 560">
  <!-- Generator: Adobe Illustrator 29.7.1, SVG Export Plug-In . SVG Version: 2.1.1 Build 8)  -->
  <path d="M560,280c0,154.64-125.36,280-280,280S0,434.64,0,280,125.36,0,280,0s280,125.36,280,280ZM280,140c-15.5,0-28,12.5-28,28v84h-84c-15.5,0-28,12.5-28,28s12.5,28,28,28h84v84c0,15.5,12.5,28,28,28s28-12.5,28-28v-84h84c15.5,0,28-12.5,28-28s-12.5-28-28-28h-84v-84c0-15.5-12.5-28-28-28Z" fill="currentColor"/>
</svg>