<?xml version="1.0" encoding="UTF-8"?>
<svg id="Layer_1" xmlns="http://www.w3.org/2000/svg" version="1.1" viewBox="0 0 512 512">
  <!-- Generator: Adobe Illustrator 29.7.1, SVG Export Plug-In . SVG Version: 2.1.1 Build 8)  -->
  <defs>
    <style>
      .st0 {
        fill: #ffc04e;
      }
    </style>
  </defs>
  <path class="st0" d="M256,0C114.6,0,0,114.6,0,256s114.6,256,256,256c68.8,0,131.3-27.2,177.3-71.4,7.3-7,9.4-17.9,5.3-27.1s-13.7-14.9-23.8-14.1c-4.9.4-9.8.6-14.8.6-101.6,0-184-82.4-184-184,0-72.1,41.5-134.6,102.1-164.8,9.1-4.5,14.3-14.3,13.1-24.4s-8.6-18.3-18.5-20.5c-18.3-4.1-37.3-6.3-56.7-6.3Z"/>
</svg>