<?xml version="1.0" encoding="UTF-8"?>
<svg id="Layer_1" xmlns="http://www.w3.org/2000/svg" version="1.1" viewBox="0 0 432 576">
  <!-- Generator: Adobe Illustrator 29.7.1, SVG Export Plug-In . SVG Version: 2.1.1 Build 8)  -->
  <path d="M360,0c17.7,0,32,14.3,32,32v50c0,51.3-32.5,96.4-80,113.1v348.9c0,17.7-14.3,32-32,32s-32-14.3-32-32v-160c0-8.8-7.2-16-16-16s-16,7.2-16,16h0v160c0,17.7-14.3,32-32,32s-32-14.3-32-32v-283.6c-.3.5-.6,1-1,1.5l-51.9,83.1c-9.4,15-29.1,19.5-44.1,10.2s-19.5-29.2-10.1-44.2l51.9-83c22.5-36,58.4-61.6,99.7-71.1l88.1-20.3c25.4-5.9,43.4-28.5,43.4-54.6v-50c0-17.7,14.3-32,32-32ZM176,56c0-30.93,25.07-56,56-56s56,25.07,56,56-25.07,56-56,56-56-25.07-56-56Z" fill="currentColor"/>
</svg>